<svg width="579" height="198" viewBox="0 0 579 198" fill="none" xmlns="http://www.w3.org/2000/svg">
<g filter="url(#filter0_d)">
<rect x="24" y="20" width="531" height="150" rx="10" fill="#DAFAFF"/>
</g>
<path d="M147.734 104V86.9375H153.582C155.512 86.9375 156.98 87.3242 157.988 88.0977C158.996 88.8711 159.5 90.0234 159.5 91.5547C159.5 92.3359 159.289 93.0391 158.867 93.6641C158.445 94.2891 157.828 94.7734 157.016 95.1172C157.938 95.3672 158.648 95.8398 159.148 96.5352C159.656 97.2227 159.91 98.0508 159.91 99.0195C159.91 100.621 159.395 101.852 158.363 102.711C157.34 103.57 155.871 104 153.957 104H147.734ZM150.699 96.3008V101.633H153.992C154.922 101.633 155.648 101.402 156.172 100.941C156.695 100.48 156.957 99.8398 156.957 99.0195C156.957 97.2461 156.051 96.3398 154.238 96.3008H150.699ZM150.699 94.1211H153.605C154.527 94.1211 155.246 93.9141 155.762 93.5C156.285 93.0781 156.547 92.4844 156.547 91.7188C156.547 90.875 156.305 90.2656 155.82 89.8906C155.344 89.5156 154.598 89.3281 153.582 89.3281H150.699V94.1211ZM169.238 93.9219C168.863 93.8594 168.477 93.8281 168.078 93.8281C166.773 93.8281 165.895 94.3281 165.441 95.3281V104H162.594V91.3203H165.312L165.383 92.7383C166.07 91.6367 167.023 91.0859 168.242 91.0859C168.648 91.0859 168.984 91.1406 169.25 91.25L169.238 93.9219ZM176.387 104.234C174.582 104.234 173.117 103.668 171.992 102.535C170.875 101.395 170.316 99.8789 170.316 97.9883V97.6367C170.316 96.3711 170.559 95.2422 171.043 94.25C171.535 93.25 172.223 92.4727 173.105 91.918C173.988 91.3633 174.973 91.0859 176.059 91.0859C177.785 91.0859 179.117 91.6367 180.055 92.7383C181 93.8398 181.473 95.3984 181.473 97.4141V98.5625H173.188C173.273 99.6094 173.621 100.438 174.23 101.047C174.848 101.656 175.621 101.961 176.551 101.961C177.855 101.961 178.918 101.434 179.738 100.379L181.273 101.844C180.766 102.602 180.086 103.191 179.234 103.613C178.391 104.027 177.441 104.234 176.387 104.234ZM176.047 93.3711C175.266 93.3711 174.633 93.6445 174.148 94.1914C173.672 94.7383 173.367 95.5 173.234 96.4766H178.66V96.2656C178.598 95.3125 178.344 94.5938 177.898 94.1094C177.453 93.6172 176.836 93.3711 176.047 93.3711ZM191.27 104C191.145 103.758 191.035 103.363 190.941 102.816C190.035 103.762 188.926 104.234 187.613 104.234C186.34 104.234 185.301 103.871 184.496 103.145C183.691 102.418 183.289 101.52 183.289 100.449C183.289 99.0977 183.789 98.0625 184.789 97.3438C185.797 96.6172 187.234 96.2539 189.102 96.2539H190.848V95.4219C190.848 94.7656 190.664 94.2422 190.297 93.8516C189.93 93.4531 189.371 93.2539 188.621 93.2539C187.973 93.2539 187.441 93.418 187.027 93.7461C186.613 94.0664 186.406 94.4766 186.406 94.9766H183.559C183.559 94.2812 183.789 93.6328 184.25 93.0312C184.711 92.4219 185.336 91.9453 186.125 91.6016C186.922 91.2578 187.809 91.0859 188.785 91.0859C190.27 91.0859 191.453 91.4609 192.336 92.2109C193.219 92.9531 193.672 94 193.695 95.3516V101.07C193.695 102.211 193.855 103.121 194.176 103.801V104H191.27ZM188.141 101.949C188.703 101.949 189.23 101.812 189.723 101.539C190.223 101.266 190.598 100.898 190.848 100.438V98.0469H189.312C188.258 98.0469 187.465 98.2305 186.934 98.5977C186.402 98.9648 186.137 99.4844 186.137 100.156C186.137 100.703 186.316 101.141 186.676 101.469C187.043 101.789 187.531 101.949 188.141 101.949ZM200.797 98.5625L199.531 99.8633V104H196.684V86H199.531V96.3828L200.422 95.2695L203.926 91.3203H207.348L202.637 96.6055L207.852 104H204.559L200.797 98.5625ZM225.301 96.7695H218.434V104H215.469V86.9375H226.309V89.3281H218.434V94.4023H225.301V96.7695ZM234.723 93.9219C234.348 93.8594 233.961 93.8281 233.562 93.8281C232.258 93.8281 231.379 94.3281 230.926 95.3281V104H228.078V91.3203H230.797L230.867 92.7383C231.555 91.6367 232.508 91.0859 233.727 91.0859C234.133 91.0859 234.469 91.1406 234.734 91.25L234.723 93.9219ZM241.871 104.234C240.066 104.234 238.602 103.668 237.477 102.535C236.359 101.395 235.801 99.8789 235.801 97.9883V97.6367C235.801 96.3711 236.043 95.2422 236.527 94.25C237.02 93.25 237.707 92.4727 238.59 91.918C239.473 91.3633 240.457 91.0859 241.543 91.0859C243.27 91.0859 244.602 91.6367 245.539 92.7383C246.484 93.8398 246.957 95.3984 246.957 97.4141V98.5625H238.672C238.758 99.6094 239.105 100.438 239.715 101.047C240.332 101.656 241.105 101.961 242.035 101.961C243.34 101.961 244.402 101.434 245.223 100.379L246.758 101.844C246.25 102.602 245.57 103.191 244.719 103.613C243.875 104.027 242.926 104.234 241.871 104.234ZM241.531 93.3711C240.75 93.3711 240.117 93.6445 239.633 94.1914C239.156 94.7383 238.852 95.5 238.719 96.4766H244.145V96.2656C244.082 95.3125 243.828 94.5938 243.383 94.1094C242.938 93.6172 242.32 93.3711 241.531 93.3711ZM254.762 104.234C252.957 104.234 251.492 103.668 250.367 102.535C249.25 101.395 248.691 99.8789 248.691 97.9883V97.6367C248.691 96.3711 248.934 95.2422 249.418 94.25C249.91 93.25 250.598 92.4727 251.48 91.918C252.363 91.3633 253.348 91.0859 254.434 91.0859C256.16 91.0859 257.492 91.6367 258.43 92.7383C259.375 93.8398 259.848 95.3984 259.848 97.4141V98.5625H251.562C251.648 99.6094 251.996 100.438 252.605 101.047C253.223 101.656 253.996 101.961 254.926 101.961C256.23 101.961 257.293 101.434 258.113 100.379L259.648 101.844C259.141 102.602 258.461 103.191 257.609 103.613C256.766 104.027 255.816 104.234 254.762 104.234ZM254.422 93.3711C253.641 93.3711 253.008 93.6445 252.523 94.1914C252.047 94.7383 251.742 95.5 251.609 96.4766H257.035V96.2656C256.973 95.3125 256.719 94.5938 256.273 94.1094C255.828 93.6172 255.211 93.3711 254.422 93.3711ZM267.512 97.543C267.512 96.3008 267.758 95.1836 268.25 94.1914C268.742 93.1914 269.434 92.4258 270.324 91.8945C271.215 91.3555 272.238 91.0859 273.395 91.0859C275.105 91.0859 276.492 91.6367 277.555 92.7383C278.625 93.8398 279.203 95.3008 279.289 97.1211L279.301 97.7891C279.301 99.0391 279.059 100.156 278.574 101.141C278.098 102.125 277.41 102.887 276.512 103.426C275.621 103.965 274.59 104.234 273.418 104.234C271.629 104.234 270.195 103.641 269.117 102.453C268.047 101.258 267.512 99.668 267.512 97.6836V97.543ZM270.359 97.7891C270.359 99.0938 270.629 100.117 271.168 100.859C271.707 101.594 272.457 101.961 273.418 101.961C274.379 101.961 275.125 101.586 275.656 100.836C276.195 100.086 276.465 98.9883 276.465 97.543C276.465 96.2617 276.188 95.2461 275.633 94.4961C275.086 93.7461 274.34 93.3711 273.395 93.3711C272.465 93.3711 271.727 93.7422 271.18 94.4844C270.633 95.2188 270.359 96.3203 270.359 97.7891ZM282.711 104V93.4297H280.777V91.3203H282.711V90.1602C282.711 88.7539 283.102 87.668 283.883 86.9023C284.664 86.1367 285.758 85.7539 287.164 85.7539C287.664 85.7539 288.195 85.8242 288.758 85.9648L288.688 88.1914C288.375 88.1289 288.012 88.0977 287.598 88.0977C286.238 88.0977 285.559 88.7969 285.559 90.1953V91.3203H288.137V93.4297H285.559V104H282.711ZM302.738 97.4258H299.434V104H296.469V86.9375H302.469C304.438 86.9375 305.957 87.3789 307.027 88.2617C308.098 89.1445 308.633 90.4219 308.633 92.0938C308.633 93.2344 308.355 94.1914 307.801 94.9648C307.254 95.7305 306.488 96.3203 305.504 96.7344L309.336 103.848V104H306.16L302.738 97.4258ZM299.434 95.0469H302.48C303.48 95.0469 304.262 94.7969 304.824 94.2969C305.387 93.7891 305.668 93.0977 305.668 92.2227C305.668 91.3086 305.406 90.6016 304.883 90.1016C304.367 89.6016 303.594 89.3438 302.562 89.3281H299.434V95.0469ZM316.754 104.234C314.949 104.234 313.484 103.668 312.359 102.535C311.242 101.395 310.684 99.8789 310.684 97.9883V97.6367C310.684 96.3711 310.926 95.2422 311.41 94.25C311.902 93.25 312.59 92.4727 313.473 91.918C314.355 91.3633 315.34 91.0859 316.426 91.0859C318.152 91.0859 319.484 91.6367 320.422 92.7383C321.367 93.8398 321.84 95.3984 321.84 97.4141V98.5625H313.555C313.641 99.6094 313.988 100.438 314.598 101.047C315.215 101.656 315.988 101.961 316.918 101.961C318.223 101.961 319.285 101.434 320.105 100.379L321.641 101.844C321.133 102.602 320.453 103.191 319.602 103.613C318.758 104.027 317.809 104.234 316.754 104.234ZM316.414 93.3711C315.633 93.3711 315 93.6445 314.516 94.1914C314.039 94.7383 313.734 95.5 313.602 96.4766H319.027V96.2656C318.965 95.3125 318.711 94.5938 318.266 94.1094C317.82 93.6172 317.203 93.3711 316.414 93.3711ZM331.168 100.555C331.168 100.047 330.957 99.6602 330.535 99.3945C330.121 99.1289 329.43 98.8945 328.461 98.6914C327.492 98.4883 326.684 98.2305 326.035 97.918C324.613 97.2305 323.902 96.2344 323.902 94.9297C323.902 93.8359 324.363 92.9219 325.285 92.1875C326.207 91.4531 327.379 91.0859 328.801 91.0859C330.316 91.0859 331.539 91.4609 332.469 92.2109C333.406 92.9609 333.875 93.9336 333.875 95.1289H331.027C331.027 94.582 330.824 94.1289 330.418 93.7695C330.012 93.4023 329.473 93.2188 328.801 93.2188C328.176 93.2188 327.664 93.3633 327.266 93.6523C326.875 93.9414 326.68 94.3281 326.68 94.8125C326.68 95.25 326.863 95.5898 327.23 95.832C327.598 96.0742 328.34 96.3203 329.457 96.5703C330.574 96.8125 331.449 97.1055 332.082 97.4492C332.723 97.7852 333.195 98.1914 333.5 98.668C333.812 99.1445 333.969 99.7227 333.969 100.402C333.969 101.543 333.496 102.469 332.551 103.18C331.605 103.883 330.367 104.234 328.836 104.234C327.797 104.234 326.871 104.047 326.059 103.672C325.246 103.297 324.613 102.781 324.16 102.125C323.707 101.469 323.48 100.762 323.48 100.004H326.246C326.285 100.676 326.539 101.195 327.008 101.562C327.477 101.922 328.098 102.102 328.871 102.102C329.621 102.102 330.191 101.961 330.582 101.68C330.973 101.391 331.168 101.016 331.168 100.555ZM340.027 88.2383V91.3203H342.266V93.4297H340.027V100.508C340.027 100.992 340.121 101.344 340.309 101.562C340.504 101.773 340.848 101.879 341.34 101.879C341.668 101.879 342 101.84 342.336 101.762V103.965C341.688 104.145 341.062 104.234 340.461 104.234C338.273 104.234 337.18 103.027 337.18 100.613V93.4297H335.094V91.3203H337.18V88.2383H340.027ZM351.09 93.9219C350.715 93.8594 350.328 93.8281 349.93 93.8281C348.625 93.8281 347.746 94.3281 347.293 95.3281V104H344.445V91.3203H347.164L347.234 92.7383C347.922 91.6367 348.875 91.0859 350.094 91.0859C350.5 91.0859 350.836 91.1406 351.102 91.25L351.09 93.9219ZM355.918 104H353.07V91.3203H355.918V104ZM352.895 88.0273C352.895 87.5898 353.031 87.2266 353.305 86.9375C353.586 86.6484 353.984 86.5039 354.5 86.5039C355.016 86.5039 355.414 86.6484 355.695 86.9375C355.977 87.2266 356.117 87.5898 356.117 88.0273C356.117 88.457 355.977 88.8164 355.695 89.1055C355.414 89.3867 355.016 89.5273 354.5 89.5273C353.984 89.5273 353.586 89.3867 353.305 89.1055C353.031 88.8164 352.895 88.457 352.895 88.0273ZM364.238 101.961C364.949 101.961 365.539 101.754 366.008 101.34C366.477 100.926 366.727 100.414 366.758 99.8047H369.441C369.41 100.594 369.164 101.332 368.703 102.02C368.242 102.699 367.617 103.238 366.828 103.637C366.039 104.035 365.188 104.234 364.273 104.234C362.5 104.234 361.094 103.66 360.055 102.512C359.016 101.363 358.496 99.7773 358.496 97.7539V97.4609C358.496 95.5312 359.012 93.9883 360.043 92.832C361.074 91.668 362.48 91.0859 364.262 91.0859C365.77 91.0859 366.996 91.5273 367.941 92.4102C368.895 93.2852 369.395 94.4375 369.441 95.8672H366.758C366.727 95.1406 366.477 94.543 366.008 94.0742C365.547 93.6055 364.957 93.3711 364.238 93.3711C363.316 93.3711 362.605 93.707 362.105 94.3789C361.605 95.043 361.352 96.0547 361.344 97.4141V97.8711C361.344 99.2461 361.59 100.273 362.082 100.953C362.582 101.625 363.301 101.961 364.238 101.961ZM375.16 88.2383V91.3203H377.398V93.4297H375.16V100.508C375.16 100.992 375.254 101.344 375.441 101.562C375.637 101.773 375.98 101.879 376.473 101.879C376.801 101.879 377.133 101.84 377.469 101.762V103.965C376.82 104.145 376.195 104.234 375.594 104.234C373.406 104.234 372.312 103.027 372.312 100.613V93.4297H370.227V91.3203H372.312V88.2383H375.16ZM382.613 104H379.766V91.3203H382.613V104ZM379.59 88.0273C379.59 87.5898 379.727 87.2266 380 86.9375C380.281 86.6484 380.68 86.5039 381.195 86.5039C381.711 86.5039 382.109 86.6484 382.391 86.9375C382.672 87.2266 382.812 87.5898 382.812 88.0273C382.812 88.457 382.672 88.8164 382.391 89.1055C382.109 89.3867 381.711 89.5273 381.195 89.5273C380.68 89.5273 380.281 89.3867 380 89.1055C379.727 88.8164 379.59 88.457 379.59 88.0273ZM390.195 100.391L392.879 91.3203H395.82L391.426 104H388.953L384.523 91.3203H387.477L390.195 100.391ZM403.027 104.234C401.223 104.234 399.758 103.668 398.633 102.535C397.516 101.395 396.957 99.8789 396.957 97.9883V97.6367C396.957 96.3711 397.199 95.2422 397.684 94.25C398.176 93.25 398.863 92.4727 399.746 91.918C400.629 91.3633 401.613 91.0859 402.699 91.0859C404.426 91.0859 405.758 91.6367 406.695 92.7383C407.641 93.8398 408.113 95.3984 408.113 97.4141V98.5625H399.828C399.914 99.6094 400.262 100.438 400.871 101.047C401.488 101.656 402.262 101.961 403.191 101.961C404.496 101.961 405.559 101.434 406.379 100.379L407.914 101.844C407.406 102.602 406.727 103.191 405.875 103.613C405.031 104.027 404.082 104.234 403.027 104.234ZM402.688 93.3711C401.906 93.3711 401.273 93.6445 400.789 94.1914C400.312 94.7383 400.008 95.5 399.875 96.4766H405.301V96.2656C405.238 95.3125 404.984 94.5938 404.539 94.1094C404.094 93.6172 403.477 93.3711 402.688 93.3711ZM419.551 97.6602V104H416.586V86.9375H423.113C425.02 86.9375 426.531 87.4336 427.648 88.4258C428.773 89.418 429.336 90.7305 429.336 92.3633C429.336 94.0352 428.785 95.3359 427.684 96.2656C426.59 97.1953 425.055 97.6602 423.078 97.6602H419.551ZM419.551 95.2812H423.113C424.168 95.2812 424.973 95.0352 425.527 94.543C426.082 94.043 426.359 93.3242 426.359 92.3867C426.359 91.4648 426.078 90.7305 425.516 90.1836C424.953 89.6289 424.18 89.3438 423.195 89.3281H419.551V95.2812ZM434.691 104H431.844V86H434.691V104ZM445.379 104C445.254 103.758 445.145 103.363 445.051 102.816C444.145 103.762 443.035 104.234 441.723 104.234C440.449 104.234 439.41 103.871 438.605 103.145C437.801 102.418 437.398 101.52 437.398 100.449C437.398 99.0977 437.898 98.0625 438.898 97.3438C439.906 96.6172 441.344 96.2539 443.211 96.2539H444.957V95.4219C444.957 94.7656 444.773 94.2422 444.406 93.8516C444.039 93.4531 443.48 93.2539 442.73 93.2539C442.082 93.2539 441.551 93.418 441.137 93.7461C440.723 94.0664 440.516 94.4766 440.516 94.9766H437.668C437.668 94.2812 437.898 93.6328 438.359 93.0312C438.82 92.4219 439.445 91.9453 440.234 91.6016C441.031 91.2578 441.918 91.0859 442.895 91.0859C444.379 91.0859 445.562 91.4609 446.445 92.2109C447.328 92.9531 447.781 94 447.805 95.3516V101.07C447.805 102.211 447.965 103.121 448.285 103.801V104H445.379ZM442.25 101.949C442.812 101.949 443.34 101.812 443.832 101.539C444.332 101.266 444.707 100.898 444.957 100.438V98.0469H443.422C442.367 98.0469 441.574 98.2305 441.043 98.5977C440.512 98.9648 440.246 99.4844 440.246 100.156C440.246 100.703 440.426 101.141 440.785 101.469C441.152 101.789 441.641 101.949 442.25 101.949ZM454.355 88.2383V91.3203H456.594V93.4297H454.355V100.508C454.355 100.992 454.449 101.344 454.637 101.562C454.832 101.773 455.176 101.879 455.668 101.879C455.996 101.879 456.328 101.84 456.664 101.762V103.965C456.016 104.145 455.391 104.234 454.789 104.234C452.602 104.234 451.508 103.027 451.508 100.613V93.4297H449.422V91.3203H451.508V88.2383H454.355ZM459.781 104V93.4297H457.848V91.3203H459.781V90.1602C459.781 88.7539 460.172 87.668 460.953 86.9023C461.734 86.1367 462.828 85.7539 464.234 85.7539C464.734 85.7539 465.266 85.8242 465.828 85.9648L465.758 88.1914C465.445 88.1289 465.082 88.0977 464.668 88.0977C463.309 88.0977 462.629 88.7969 462.629 90.1953V91.3203H465.207V93.4297H462.629V104H459.781ZM466.754 97.543C466.754 96.3008 467 95.1836 467.492 94.1914C467.984 93.1914 468.676 92.4258 469.566 91.8945C470.457 91.3555 471.48 91.0859 472.637 91.0859C474.348 91.0859 475.734 91.6367 476.797 92.7383C477.867 93.8398 478.445 95.3008 478.531 97.1211L478.543 97.7891C478.543 99.0391 478.301 100.156 477.816 101.141C477.34 102.125 476.652 102.887 475.754 103.426C474.863 103.965 473.832 104.234 472.66 104.234C470.871 104.234 469.438 103.641 468.359 102.453C467.289 101.258 466.754 99.668 466.754 97.6836V97.543ZM469.602 97.7891C469.602 99.0938 469.871 100.117 470.41 100.859C470.949 101.594 471.699 101.961 472.66 101.961C473.621 101.961 474.367 101.586 474.898 100.836C475.438 100.086 475.707 98.9883 475.707 97.543C475.707 96.2617 475.43 95.2461 474.875 94.4961C474.328 93.7461 473.582 93.3711 472.637 93.3711C471.707 93.3711 470.969 93.7422 470.422 94.4844C469.875 95.2188 469.602 96.3203 469.602 97.7891ZM487.59 93.9219C487.215 93.8594 486.828 93.8281 486.43 93.8281C485.125 93.8281 484.246 94.3281 483.793 95.3281V104H480.945V91.3203H483.664L483.734 92.7383C484.422 91.6367 485.375 91.0859 486.594 91.0859C487 91.0859 487.336 91.1406 487.602 91.25L487.59 93.9219ZM492.066 91.3203L492.148 92.6445C493.039 91.6055 494.258 91.0859 495.805 91.0859C497.5 91.0859 498.66 91.7344 499.285 93.0312C500.207 91.7344 501.504 91.0859 503.176 91.0859C504.574 91.0859 505.613 91.4727 506.293 92.2461C506.98 93.0195 507.332 94.1602 507.348 95.668V104H504.5V95.75C504.5 94.9453 504.324 94.3555 503.973 93.9805C503.621 93.6055 503.039 93.418 502.227 93.418C501.578 93.418 501.047 93.5938 500.633 93.9453C500.227 94.2891 499.941 94.7422 499.777 95.3047L499.789 104H496.941V95.6562C496.902 94.1641 496.141 93.418 494.656 93.418C493.516 93.418 492.707 93.8828 492.23 94.8125V104H489.383V91.3203H492.066ZM517.379 100.555C517.379 100.047 517.168 99.6602 516.746 99.3945C516.332 99.1289 515.641 98.8945 514.672 98.6914C513.703 98.4883 512.895 98.2305 512.246 97.918C510.824 97.2305 510.113 96.2344 510.113 94.9297C510.113 93.8359 510.574 92.9219 511.496 92.1875C512.418 91.4531 513.59 91.0859 515.012 91.0859C516.527 91.0859 517.75 91.4609 518.68 92.2109C519.617 92.9609 520.086 93.9336 520.086 95.1289H517.238C517.238 94.582 517.035 94.1289 516.629 93.7695C516.223 93.4023 515.684 93.2188 515.012 93.2188C514.387 93.2188 513.875 93.3633 513.477 93.6523C513.086 93.9414 512.891 94.3281 512.891 94.8125C512.891 95.25 513.074 95.5898 513.441 95.832C513.809 96.0742 514.551 96.3203 515.668 96.5703C516.785 96.8125 517.66 97.1055 518.293 97.4492C518.934 97.7852 519.406 98.1914 519.711 98.668C520.023 99.1445 520.18 99.7227 520.18 100.402C520.18 101.543 519.707 102.469 518.762 103.18C517.816 103.883 516.578 104.234 515.047 104.234C514.008 104.234 513.082 104.047 512.27 103.672C511.457 103.297 510.824 102.781 510.371 102.125C509.918 101.469 509.691 100.762 509.691 100.004H512.457C512.496 100.676 512.75 101.195 513.219 101.562C513.688 101.922 514.309 102.102 515.082 102.102C515.832 102.102 516.402 101.961 516.793 101.68C517.184 101.391 517.379 101.016 517.379 100.555Z" fill="#333333"/>
<g filter="url(#filter1_d)">
<path d="M106.935 82C100.447 82 87.0421 92.7929 86.4741 93.2496C81.6735 97.1479 72.7073 103.33 69.0651 103.33C64.5096 103.33 60.8006 99.6206 60.8006 95.0651C60.8006 90.5096 64.5096 86.8006 69.0651 86.8006C70.6857 86.8006 74.1441 87.8921 81.4118 93.0825L82.0968 93.5726L85.9951 90.4594L84.7922 89.6018C77.6359 84.4838 72.4901 82 69.0651 82C61.8587 82 56 87.8587 56 95.0651C56 102.266 61.8587 108.13 69.0651 108.13C75.5531 108.13 88.9579 97.3373 89.5259 96.875C94.3265 92.9767 103.298 86.8006 106.94 86.8006C111.496 86.8006 115.205 90.5096 115.205 95.0651C115.205 99.6206 111.496 103.33 106.94 103.33C105.955 103.33 102.842 102.762 95.2008 97.4709C95.1284 97.4208 95.0727 97.3818 95.0226 97.3484L94.2151 96.7748L90.339 99.9102L91.5364 100.762C91.8371 100.979 92.149 101.197 92.4664 101.414C98.9934 105.93 103.727 108.125 106.935 108.125C114.136 108.125 120 102.266 120 95.0595C120 87.8587 114.136 82 106.935 82Z" fill="#17A2B8"/>
</g>
<defs>
<filter id="filter0_d" x="0" y="0" width="579" height="198" filterUnits="userSpaceOnUse" color-interpolation-filters="sRGB">
<feFlood flood-opacity="0" result="BackgroundImageFix"/>
<feColorMatrix in="SourceAlpha" type="matrix" values="0 0 0 0 0 0 0 0 0 0 0 0 0 0 0 0 0 0 127 0"/>
<feOffset dy="4"/>
<feGaussianBlur stdDeviation="12"/>
<feColorMatrix type="matrix" values="0 0 0 0 0 0 0 0 0 0 0 0 0 0 0 0 0 0 0.12 0"/>
<feBlend mode="normal" in2="BackgroundImageFix" result="effect1_dropShadow"/>
<feBlend mode="normal" in="SourceGraphic" in2="effect1_dropShadow" result="shape"/>
</filter>
<filter id="filter1_d" x="55" y="82" width="66" height="31.1302" filterUnits="userSpaceOnUse" color-interpolation-filters="sRGB">
<feFlood flood-opacity="0" result="BackgroundImageFix"/>
<feColorMatrix in="SourceAlpha" type="matrix" values="0 0 0 0 0 0 0 0 0 0 0 0 0 0 0 0 0 0 127 0"/>
<feOffset dy="4"/>
<feGaussianBlur stdDeviation="0.5"/>
<feColorMatrix type="matrix" values="0 0 0 0 0.741176 0 0 0 0 0.741176 0 0 0 0 0.741176 0 0 0 0.5 0"/>
<feBlend mode="normal" in2="BackgroundImageFix" result="effect1_dropShadow"/>
<feBlend mode="normal" in="SourceGraphic" in2="effect1_dropShadow" result="shape"/>
</filter>
</defs>
</svg>
