<svg width="579" height="198" viewBox="0 0 579 198" fill="none" xmlns="http://www.w3.org/2000/svg">
<g filter="url(#filter0_d)">
<rect x="24" y="20" width="531" height="150" rx="10" fill="#FFEAAB"/>
</g>
<path d="M147.734 103V85.9375H153.582C155.512 85.9375 156.98 86.3242 157.988 87.0977C158.996 87.8711 159.5 89.0234 159.5 90.5547C159.5 91.3359 159.289 92.0391 158.867 92.6641C158.445 93.2891 157.828 93.7734 157.016 94.1172C157.938 94.3672 158.648 94.8398 159.148 95.5352C159.656 96.2227 159.91 97.0508 159.91 98.0195C159.91 99.6211 159.395 100.852 158.363 101.711C157.34 102.57 155.871 103 153.957 103H147.734ZM150.699 95.3008V100.633H153.992C154.922 100.633 155.648 100.402 156.172 99.9414C156.695 99.4805 156.957 98.8398 156.957 98.0195C156.957 96.2461 156.051 95.3398 154.238 95.3008H150.699ZM150.699 93.1211H153.605C154.527 93.1211 155.246 92.9141 155.762 92.5C156.285 92.0781 156.547 91.4844 156.547 90.7188C156.547 89.875 156.305 89.2656 155.82 88.8906C155.344 88.5156 154.598 88.3281 153.582 88.3281H150.699V93.1211ZM170.281 101.758C169.445 102.742 168.258 103.234 166.719 103.234C165.344 103.234 164.301 102.832 163.59 102.027C162.887 101.223 162.535 100.059 162.535 98.5352V90.3203H165.383V98.5C165.383 100.109 166.051 100.914 167.387 100.914C168.77 100.914 169.703 100.418 170.188 99.4258V90.3203H173.035V103H170.352L170.281 101.758ZM178.965 103H176.117V90.3203H178.965V103ZM175.941 87.0273C175.941 86.5898 176.078 86.2266 176.352 85.9375C176.633 85.6484 177.031 85.5039 177.547 85.5039C178.062 85.5039 178.461 85.6484 178.742 85.9375C179.023 86.2266 179.164 86.5898 179.164 87.0273C179.164 87.457 179.023 87.8164 178.742 88.1055C178.461 88.3867 178.062 88.5273 177.547 88.5273C177.031 88.5273 176.633 88.3867 176.352 88.1055C176.078 87.8164 175.941 87.457 175.941 87.0273ZM185.105 103H182.258V85H185.105V103ZM187.684 96.5664C187.684 94.6133 188.137 93.0469 189.043 91.8672C189.949 90.6797 191.164 90.0859 192.688 90.0859C194.031 90.0859 195.117 90.5547 195.945 91.4922V85H198.793V103H196.215L196.074 101.688C195.223 102.719 194.086 103.234 192.664 103.234C191.18 103.234 189.977 102.637 189.055 101.441C188.141 100.246 187.684 98.6211 187.684 96.5664ZM190.531 96.8125C190.531 98.1016 190.777 99.1094 191.27 99.8359C191.77 100.555 192.477 100.914 193.391 100.914C194.555 100.914 195.406 100.395 195.945 99.3555V93.9414C195.422 92.9258 194.578 92.418 193.414 92.418C192.492 92.418 191.781 92.7852 191.281 93.5195C190.781 94.2461 190.531 95.3438 190.531 96.8125ZM217.988 95.3828H210.98V100.633H219.172V103H208.016V85.9375H219.09V88.3281H210.98V93.0391H217.988V95.3828ZM225.863 94.4922L228.277 90.3203H231.441L227.562 96.5664L231.57 103H228.43L225.898 98.6641L223.379 103H220.215L224.223 96.5664L220.355 90.3203H223.496L225.863 94.4922ZM240.957 103C240.832 102.758 240.723 102.363 240.629 101.816C239.723 102.762 238.613 103.234 237.301 103.234C236.027 103.234 234.988 102.871 234.184 102.145C233.379 101.418 232.977 100.52 232.977 99.4492C232.977 98.0977 233.477 97.0625 234.477 96.3438C235.484 95.6172 236.922 95.2539 238.789 95.2539H240.535V94.4219C240.535 93.7656 240.352 93.2422 239.984 92.8516C239.617 92.4531 239.059 92.2539 238.309 92.2539C237.66 92.2539 237.129 92.418 236.715 92.7461C236.301 93.0664 236.094 93.4766 236.094 93.9766H233.246C233.246 93.2812 233.477 92.6328 233.938 92.0312C234.398 91.4219 235.023 90.9453 235.812 90.6016C236.609 90.2578 237.496 90.0859 238.473 90.0859C239.957 90.0859 241.141 90.4609 242.023 91.2109C242.906 91.9531 243.359 93 243.383 94.3516V100.07C243.383 101.211 243.543 102.121 243.863 102.801V103H240.957ZM237.828 100.949C238.391 100.949 238.918 100.812 239.41 100.539C239.91 100.266 240.285 99.8984 240.535 99.4375V97.0469H239C237.945 97.0469 237.152 97.2305 236.621 97.5977C236.09 97.9648 235.824 98.4844 235.824 99.1562C235.824 99.7031 236.004 100.141 236.363 100.469C236.73 100.789 237.219 100.949 237.828 100.949ZM251.574 100.961C252.285 100.961 252.875 100.754 253.344 100.34C253.812 99.9258 254.062 99.4141 254.094 98.8047H256.777C256.746 99.5938 256.5 100.332 256.039 101.02C255.578 101.699 254.953 102.238 254.164 102.637C253.375 103.035 252.523 103.234 251.609 103.234C249.836 103.234 248.43 102.66 247.391 101.512C246.352 100.363 245.832 98.7773 245.832 96.7539V96.4609C245.832 94.5312 246.348 92.9883 247.379 91.832C248.41 90.668 249.816 90.0859 251.598 90.0859C253.105 90.0859 254.332 90.5273 255.277 91.4102C256.23 92.2852 256.73 93.4375 256.777 94.8672H254.094C254.062 94.1406 253.812 93.543 253.344 93.0742C252.883 92.6055 252.293 92.3711 251.574 92.3711C250.652 92.3711 249.941 92.707 249.441 93.3789C248.941 94.043 248.688 95.0547 248.68 96.4141V96.8711C248.68 98.2461 248.926 99.2734 249.418 99.9531C249.918 100.625 250.637 100.961 251.574 100.961ZM262.496 87.2383V90.3203H264.734V92.4297H262.496V99.5078C262.496 99.9922 262.59 100.344 262.777 100.562C262.973 100.773 263.316 100.879 263.809 100.879C264.137 100.879 264.469 100.84 264.805 100.762V102.965C264.156 103.145 263.531 103.234 262.93 103.234C260.742 103.234 259.648 102.027 259.648 99.6133V92.4297H257.562V90.3203H259.648V87.2383H262.496ZM269.949 103H267.102V85H269.949V103ZM277.496 98.9219L280.074 90.3203H283.109L278.07 104.922C277.297 107.055 275.984 108.121 274.133 108.121C273.719 108.121 273.262 108.051 272.762 107.91V105.707L273.301 105.742C274.02 105.742 274.559 105.609 274.918 105.344C275.285 105.086 275.574 104.648 275.785 104.031L276.195 102.941L271.742 90.3203H274.812L277.496 98.9219ZM304.391 98.7812L307.016 85.9375H309.957L306.02 103H303.184L299.938 90.543L296.621 103H293.773L289.836 85.9375H292.777L295.426 98.7578L298.684 85.9375H301.168L304.391 98.7812ZM314.656 91.7031C315.586 90.625 316.762 90.0859 318.184 90.0859C320.887 90.0859 322.258 91.6289 322.297 94.7148V103H319.449V94.8203C319.449 93.9453 319.258 93.3281 318.875 92.9688C318.5 92.6016 317.945 92.418 317.211 92.418C316.07 92.418 315.219 92.9258 314.656 93.9414V103H311.809V85H314.656V91.7031ZM332.762 103C332.637 102.758 332.527 102.363 332.434 101.816C331.527 102.762 330.418 103.234 329.105 103.234C327.832 103.234 326.793 102.871 325.988 102.145C325.184 101.418 324.781 100.52 324.781 99.4492C324.781 98.0977 325.281 97.0625 326.281 96.3438C327.289 95.6172 328.727 95.2539 330.594 95.2539H332.34V94.4219C332.34 93.7656 332.156 93.2422 331.789 92.8516C331.422 92.4531 330.863 92.2539 330.113 92.2539C329.465 92.2539 328.934 92.418 328.52 92.7461C328.105 93.0664 327.898 93.4766 327.898 93.9766H325.051C325.051 93.2812 325.281 92.6328 325.742 92.0312C326.203 91.4219 326.828 90.9453 327.617 90.6016C328.414 90.2578 329.301 90.0859 330.277 90.0859C331.762 90.0859 332.945 90.4609 333.828 91.2109C334.711 91.9531 335.164 93 335.188 94.3516V100.07C335.188 101.211 335.348 102.121 335.668 102.801V103H332.762ZM329.633 100.949C330.195 100.949 330.723 100.812 331.215 100.539C331.715 100.266 332.09 99.8984 332.34 99.4375V97.0469H330.805C329.75 97.0469 328.957 97.2305 328.426 97.5977C327.895 97.9648 327.629 98.4844 327.629 99.1562C327.629 99.7031 327.809 100.141 328.168 100.469C328.535 100.789 329.023 100.949 329.633 100.949ZM341.738 87.2383V90.3203H343.977V92.4297H341.738V99.5078C341.738 99.9922 341.832 100.344 342.02 100.562C342.215 100.773 342.559 100.879 343.051 100.879C343.379 100.879 343.711 100.84 344.047 100.762V102.965C343.398 103.145 342.773 103.234 342.172 103.234C339.984 103.234 338.891 102.027 338.891 99.6133V92.4297H336.805V90.3203H338.891V87.2383H341.738ZM357.98 94.0234L361.906 85.9375H365.188L359.469 96.7188V103H356.492V96.7188L350.762 85.9375H354.055L357.98 94.0234ZM365.457 96.543C365.457 95.3008 365.703 94.1836 366.195 93.1914C366.688 92.1914 367.379 91.4258 368.27 90.8945C369.16 90.3555 370.184 90.0859 371.34 90.0859C373.051 90.0859 374.438 90.6367 375.5 91.7383C376.57 92.8398 377.148 94.3008 377.234 96.1211L377.246 96.7891C377.246 98.0391 377.004 99.1562 376.52 100.141C376.043 101.125 375.355 101.887 374.457 102.426C373.566 102.965 372.535 103.234 371.363 103.234C369.574 103.234 368.141 102.641 367.062 101.453C365.992 100.258 365.457 98.668 365.457 96.6836V96.543ZM368.305 96.7891C368.305 98.0938 368.574 99.1172 369.113 99.8594C369.652 100.594 370.402 100.961 371.363 100.961C372.324 100.961 373.07 100.586 373.602 99.8359C374.141 99.0859 374.41 97.9883 374.41 96.543C374.41 95.2617 374.133 94.2461 373.578 93.4961C373.031 92.7461 372.285 92.3711 371.34 92.3711C370.41 92.3711 369.672 92.7422 369.125 93.4844C368.578 94.2188 368.305 95.3203 368.305 96.7891ZM387.336 101.758C386.5 102.742 385.312 103.234 383.773 103.234C382.398 103.234 381.355 102.832 380.645 102.027C379.941 101.223 379.59 100.059 379.59 98.5352V90.3203H382.438V98.5C382.438 100.109 383.105 100.914 384.441 100.914C385.824 100.914 386.758 100.418 387.242 99.4258V90.3203H390.09V103H387.406L387.336 101.758ZM412.625 98.7812L415.25 85.9375H418.191L414.254 103H411.418L408.172 90.543L404.855 103H402.008L398.07 85.9375H401.012L403.66 98.7578L406.918 85.9375H409.402L412.625 98.7812ZM427.262 103C427.137 102.758 427.027 102.363 426.934 101.816C426.027 102.762 424.918 103.234 423.605 103.234C422.332 103.234 421.293 102.871 420.488 102.145C419.684 101.418 419.281 100.52 419.281 99.4492C419.281 98.0977 419.781 97.0625 420.781 96.3438C421.789 95.6172 423.227 95.2539 425.094 95.2539H426.84V94.4219C426.84 93.7656 426.656 93.2422 426.289 92.8516C425.922 92.4531 425.363 92.2539 424.613 92.2539C423.965 92.2539 423.434 92.418 423.02 92.7461C422.605 93.0664 422.398 93.4766 422.398 93.9766H419.551C419.551 93.2812 419.781 92.6328 420.242 92.0312C420.703 91.4219 421.328 90.9453 422.117 90.6016C422.914 90.2578 423.801 90.0859 424.777 90.0859C426.262 90.0859 427.445 90.4609 428.328 91.2109C429.211 91.9531 429.664 93 429.688 94.3516V100.07C429.688 101.211 429.848 102.121 430.168 102.801V103H427.262ZM424.133 100.949C424.695 100.949 425.223 100.812 425.715 100.539C426.215 100.266 426.59 99.8984 426.84 99.4375V97.0469H425.305C424.25 97.0469 423.457 97.2305 422.926 97.5977C422.395 97.9648 422.129 98.4844 422.129 99.1562C422.129 99.7031 422.309 100.141 422.668 100.469C423.035 100.789 423.523 100.949 424.133 100.949ZM435.312 90.3203L435.395 91.7852C436.332 90.6523 437.562 90.0859 439.086 90.0859C441.727 90.0859 443.07 91.5977 443.117 94.6211V103H440.27V94.7852C440.27 93.9805 440.094 93.3867 439.742 93.0039C439.398 92.6133 438.832 92.418 438.043 92.418C436.895 92.418 436.039 92.9375 435.477 93.9766V103H432.629V90.3203H435.312ZM449.598 87.2383V90.3203H451.836V92.4297H449.598V99.5078C449.598 99.9922 449.691 100.344 449.879 100.562C450.074 100.773 450.418 100.879 450.91 100.879C451.238 100.879 451.57 100.84 451.906 100.762V102.965C451.258 103.145 450.633 103.234 450.031 103.234C447.844 103.234 446.75 102.027 446.75 99.6133V92.4297H444.664V90.3203H446.75V87.2383H449.598Z" fill="#333333"/>
<g filter="url(#filter1_d)">
<path d="M99.8427 73.8019L110.224 63.429C110.224 63.429 102.755 61.372 97.2715 66.8555C91.7826 72.3362 93.4711 80.1791 94.659 81.8428L74.9033 101.607C74.9033 101.607 66.7276 97.4049 60.0837 104.049C54.1603 109.969 56.4757 117.177 56.4757 117.177L66.8514 106.801L76.1435 116.011L65.7679 126.39C65.7679 126.39 72.7941 128.881 78.712 122.96C84.6382 117.04 82.2484 109.903 81.319 107.948L101.08 88.209C101.08 88.209 109.294 92.3724 116.128 85.5442C121.884 79.7913 119.513 72.6359 119.513 72.6359L109.055 83.0913L99.8427 73.8019Z" fill="#D1D3D4"/>
<path d="M80.4665 102.399C81.176 103.103 82.3392 103.092 83.0597 102.374L95.6546 89.8369C96.375 89.1192 96.386 87.9614 95.6766 87.2575C94.9643 86.5535 93.8038 86.559 93.0806 87.2795L80.4857 99.8166C79.7652 100.532 79.757 101.692 80.4665 102.399Z" fill="#58595B"/>
<path d="M78.976 116.094L66.6561 103.884L56 114.54C56.0935 116.116 56.418 117.122 56.418 117.122L66.7964 106.749L76.0913 115.959L65.7129 126.335C65.7129 126.335 66.7056 126.689 68.2539 126.816L78.976 116.094Z" fill="#A7A9AC"/>
<path d="M97.0186 73.7249L109.333 85.932L119.989 75.2731C119.893 73.7001 119.571 72.6909 119.571 72.6909L109.19 83.061L99.8978 73.8569L110.273 63.4757C110.273 63.4757 109.281 63.1265 107.732 63L97.0186 73.7249Z" fill="#A7A9AC"/>
</g>
<defs>
<filter id="filter0_d" x="0" y="0" width="579" height="198" filterUnits="userSpaceOnUse" color-interpolation-filters="sRGB">
<feFlood flood-opacity="0" result="BackgroundImageFix"/>
<feColorMatrix in="SourceAlpha" type="matrix" values="0 0 0 0 0 0 0 0 0 0 0 0 0 0 0 0 0 0 127 0"/>
<feOffset dy="4"/>
<feGaussianBlur stdDeviation="12"/>
<feColorMatrix type="matrix" values="0 0 0 0 0 0 0 0 0 0 0 0 0 0 0 0 0 0 0.12 0"/>
<feBlend mode="normal" in2="BackgroundImageFix" result="effect1_dropShadow"/>
<feBlend mode="normal" in="SourceGraphic" in2="effect1_dropShadow" result="shape"/>
</filter>
<filter id="filter1_d" x="55" y="63" width="65.9968" height="68.9099" filterUnits="userSpaceOnUse" color-interpolation-filters="sRGB">
<feFlood flood-opacity="0" result="BackgroundImageFix"/>
<feColorMatrix in="SourceAlpha" type="matrix" values="0 0 0 0 0 0 0 0 0 0 0 0 0 0 0 0 0 0 127 0"/>
<feOffset dy="4"/>
<feGaussianBlur stdDeviation="0.5"/>
<feColorMatrix type="matrix" values="0 0 0 0 0.354167 0 0 0 0 0.354167 0 0 0 0 0.354167 0 0 0 0.17 0"/>
<feBlend mode="normal" in2="BackgroundImageFix" result="effect1_dropShadow"/>
<feBlend mode="normal" in="SourceGraphic" in2="effect1_dropShadow" result="shape"/>
</filter>
</defs>
</svg>
