<svg width="579" height="198" viewBox="0 0 579 198" fill="none" xmlns="http://www.w3.org/2000/svg">
<g filter="url(#filter0_d)">
<rect x="24" y="20" width="531" height="150" rx="10" fill="#CBFFD7"/>
</g>
<path d="M150.863 103H147.91V85.9375H150.863V103ZM156.875 90.3203L156.957 91.7852C157.895 90.6523 159.125 90.0859 160.648 90.0859C163.289 90.0859 164.633 91.5977 164.68 94.6211V103H161.832V94.7852C161.832 93.9805 161.656 93.3867 161.305 93.0039C160.961 92.6133 160.395 92.418 159.605 92.418C158.457 92.418 157.602 92.9375 157.039 93.9766V103H154.191V90.3203H156.875ZM172.801 100.961C173.512 100.961 174.102 100.754 174.57 100.34C175.039 99.9258 175.289 99.4141 175.32 98.8047H178.004C177.973 99.5938 177.727 100.332 177.266 101.02C176.805 101.699 176.18 102.238 175.391 102.637C174.602 103.035 173.75 103.234 172.836 103.234C171.062 103.234 169.656 102.66 168.617 101.512C167.578 100.363 167.059 98.7773 167.059 96.7539V96.4609C167.059 94.5312 167.574 92.9883 168.605 91.832C169.637 90.668 171.043 90.0859 172.824 90.0859C174.332 90.0859 175.559 90.5273 176.504 91.4102C177.457 92.2852 177.957 93.4375 178.004 94.8672H175.32C175.289 94.1406 175.039 93.543 174.57 93.0742C174.109 92.6055 173.52 92.3711 172.801 92.3711C171.879 92.3711 171.168 92.707 170.668 93.3789C170.168 94.043 169.914 95.0547 169.906 96.4141V96.8711C169.906 98.2461 170.152 99.2734 170.645 99.9531C171.145 100.625 171.863 100.961 172.801 100.961ZM186.793 92.9219C186.418 92.8594 186.031 92.8281 185.633 92.8281C184.328 92.8281 183.449 93.3281 182.996 94.3281V103H180.148V90.3203H182.867L182.938 91.7383C183.625 90.6367 184.578 90.0859 185.797 90.0859C186.203 90.0859 186.539 90.1406 186.805 90.25L186.793 92.9219ZM193.941 103.234C192.137 103.234 190.672 102.668 189.547 101.535C188.43 100.395 187.871 98.8789 187.871 96.9883V96.6367C187.871 95.3711 188.113 94.2422 188.598 93.25C189.09 92.25 189.777 91.4727 190.66 90.918C191.543 90.3633 192.527 90.0859 193.613 90.0859C195.34 90.0859 196.672 90.6367 197.609 91.7383C198.555 92.8398 199.027 94.3984 199.027 96.4141V97.5625H190.742C190.828 98.6094 191.176 99.4375 191.785 100.047C192.402 100.656 193.176 100.961 194.105 100.961C195.41 100.961 196.473 100.434 197.293 99.3789L198.828 100.844C198.32 101.602 197.641 102.191 196.789 102.613C195.945 103.027 194.996 103.234 193.941 103.234ZM193.602 92.3711C192.82 92.3711 192.188 92.6445 191.703 93.1914C191.227 93.7383 190.922 94.5 190.789 95.4766H196.215V95.2656C196.152 94.3125 195.898 93.5938 195.453 93.1094C195.008 92.6172 194.391 92.3711 193.602 92.3711ZM208.824 103C208.699 102.758 208.59 102.363 208.496 101.816C207.59 102.762 206.48 103.234 205.168 103.234C203.895 103.234 202.855 102.871 202.051 102.145C201.246 101.418 200.844 100.52 200.844 99.4492C200.844 98.0977 201.344 97.0625 202.344 96.3438C203.352 95.6172 204.789 95.2539 206.656 95.2539H208.402V94.4219C208.402 93.7656 208.219 93.2422 207.852 92.8516C207.484 92.4531 206.926 92.2539 206.176 92.2539C205.527 92.2539 204.996 92.418 204.582 92.7461C204.168 93.0664 203.961 93.4766 203.961 93.9766H201.113C201.113 93.2812 201.344 92.6328 201.805 92.0312C202.266 91.4219 202.891 90.9453 203.68 90.6016C204.477 90.2578 205.363 90.0859 206.34 90.0859C207.824 90.0859 209.008 90.4609 209.891 91.2109C210.773 91.9531 211.227 93 211.25 94.3516V100.07C211.25 101.211 211.41 102.121 211.73 102.801V103H208.824ZM205.695 100.949C206.258 100.949 206.785 100.812 207.277 100.539C207.777 100.266 208.152 99.8984 208.402 99.4375V97.0469H206.867C205.812 97.0469 205.02 97.2305 204.488 97.5977C203.957 97.9648 203.691 98.4844 203.691 99.1562C203.691 99.7031 203.871 100.141 204.23 100.469C204.598 100.789 205.086 100.949 205.695 100.949ZM221.34 99.5547C221.34 99.0469 221.129 98.6602 220.707 98.3945C220.293 98.1289 219.602 97.8945 218.633 97.6914C217.664 97.4883 216.855 97.2305 216.207 96.918C214.785 96.2305 214.074 95.2344 214.074 93.9297C214.074 92.8359 214.535 91.9219 215.457 91.1875C216.379 90.4531 217.551 90.0859 218.973 90.0859C220.488 90.0859 221.711 90.4609 222.641 91.2109C223.578 91.9609 224.047 92.9336 224.047 94.1289H221.199C221.199 93.582 220.996 93.1289 220.59 92.7695C220.184 92.4023 219.645 92.2188 218.973 92.2188C218.348 92.2188 217.836 92.3633 217.438 92.6523C217.047 92.9414 216.852 93.3281 216.852 93.8125C216.852 94.25 217.035 94.5898 217.402 94.832C217.77 95.0742 218.512 95.3203 219.629 95.5703C220.746 95.8125 221.621 96.1055 222.254 96.4492C222.895 96.7852 223.367 97.1914 223.672 97.668C223.984 98.1445 224.141 98.7227 224.141 99.4023C224.141 100.543 223.668 101.469 222.723 102.18C221.777 102.883 220.539 103.234 219.008 103.234C217.969 103.234 217.043 103.047 216.23 102.672C215.418 102.297 214.785 101.781 214.332 101.125C213.879 100.469 213.652 99.7617 213.652 99.0039H216.418C216.457 99.6758 216.711 100.195 217.18 100.562C217.648 100.922 218.27 101.102 219.043 101.102C219.793 101.102 220.363 100.961 220.754 100.68C221.145 100.391 221.34 100.016 221.34 99.5547ZM232.215 103.234C230.41 103.234 228.945 102.668 227.82 101.535C226.703 100.395 226.145 98.8789 226.145 96.9883V96.6367C226.145 95.3711 226.387 94.2422 226.871 93.25C227.363 92.25 228.051 91.4727 228.934 90.918C229.816 90.3633 230.801 90.0859 231.887 90.0859C233.613 90.0859 234.945 90.6367 235.883 91.7383C236.828 92.8398 237.301 94.3984 237.301 96.4141V97.5625H229.016C229.102 98.6094 229.449 99.4375 230.059 100.047C230.676 100.656 231.449 100.961 232.379 100.961C233.684 100.961 234.746 100.434 235.566 99.3789L237.102 100.844C236.594 101.602 235.914 102.191 235.062 102.613C234.219 103.027 233.27 103.234 232.215 103.234ZM231.875 92.3711C231.094 92.3711 230.461 92.6445 229.977 93.1914C229.5 93.7383 229.195 94.5 229.062 95.4766H234.488V95.2656C234.426 94.3125 234.172 93.5938 233.727 93.1094C233.281 92.6172 232.664 92.3711 231.875 92.3711ZM258.793 97.4453C258.621 99.2656 257.949 100.688 256.777 101.711C255.605 102.727 254.047 103.234 252.102 103.234C250.742 103.234 249.543 102.914 248.504 102.273C247.473 101.625 246.676 100.707 246.113 99.5195C245.551 98.332 245.258 96.9531 245.234 95.3828V93.7891C245.234 92.1797 245.52 90.7617 246.09 89.5352C246.66 88.3086 247.477 87.3633 248.539 86.6992C249.609 86.0352 250.844 85.7031 252.242 85.7031C254.125 85.7031 255.641 86.2148 256.789 87.2383C257.938 88.2617 258.605 89.707 258.793 91.5742H255.84C255.699 90.3477 255.34 89.4648 254.762 88.9258C254.191 88.3789 253.352 88.1055 252.242 88.1055C250.953 88.1055 249.961 88.5781 249.266 89.5234C248.578 90.4609 248.227 91.8398 248.211 93.6602V95.1719C248.211 97.0156 248.539 98.4219 249.195 99.3906C249.859 100.359 250.828 100.844 252.102 100.844C253.266 100.844 254.141 100.582 254.727 100.059C255.312 99.5352 255.684 98.6641 255.84 97.4453H258.793ZM260.645 96.543C260.645 95.3008 260.891 94.1836 261.383 93.1914C261.875 92.1914 262.566 91.4258 263.457 90.8945C264.348 90.3555 265.371 90.0859 266.527 90.0859C268.238 90.0859 269.625 90.6367 270.688 91.7383C271.758 92.8398 272.336 94.3008 272.422 96.1211L272.434 96.7891C272.434 98.0391 272.191 99.1562 271.707 100.141C271.23 101.125 270.543 101.887 269.645 102.426C268.754 102.965 267.723 103.234 266.551 103.234C264.762 103.234 263.328 102.641 262.25 101.453C261.18 100.258 260.645 98.668 260.645 96.6836V96.543ZM263.492 96.7891C263.492 98.0938 263.762 99.1172 264.301 99.8594C264.84 100.594 265.59 100.961 266.551 100.961C267.512 100.961 268.258 100.586 268.789 99.8359C269.328 99.0859 269.598 97.9883 269.598 96.543C269.598 95.2617 269.32 94.2461 268.766 93.4961C268.219 92.7461 267.473 92.3711 266.527 92.3711C265.598 92.3711 264.859 92.7422 264.312 93.4844C263.766 94.2188 263.492 95.3203 263.492 96.7891ZM277.484 90.3203L277.566 91.7852C278.504 90.6523 279.734 90.0859 281.258 90.0859C283.898 90.0859 285.242 91.5977 285.289 94.6211V103H282.441V94.7852C282.441 93.9805 282.266 93.3867 281.914 93.0039C281.57 92.6133 281.004 92.418 280.215 92.418C279.066 92.418 278.211 92.9375 277.648 93.9766V103H274.801V90.3203H277.484ZM292.672 99.3906L295.355 90.3203H298.297L293.902 103H291.43L287 90.3203H289.953L292.672 99.3906ZM305.504 103.234C303.699 103.234 302.234 102.668 301.109 101.535C299.992 100.395 299.434 98.8789 299.434 96.9883V96.6367C299.434 95.3711 299.676 94.2422 300.16 93.25C300.652 92.25 301.34 91.4727 302.223 90.918C303.105 90.3633 304.09 90.0859 305.176 90.0859C306.902 90.0859 308.234 90.6367 309.172 91.7383C310.117 92.8398 310.59 94.3984 310.59 96.4141V97.5625H302.305C302.391 98.6094 302.738 99.4375 303.348 100.047C303.965 100.656 304.738 100.961 305.668 100.961C306.973 100.961 308.035 100.434 308.855 99.3789L310.391 100.844C309.883 101.602 309.203 102.191 308.352 102.613C307.508 103.027 306.559 103.234 305.504 103.234ZM305.164 92.3711C304.383 92.3711 303.75 92.6445 303.266 93.1914C302.789 93.7383 302.484 94.5 302.352 95.4766H307.777V95.2656C307.715 94.3125 307.461 93.5938 307.016 93.1094C306.57 92.6172 305.953 92.3711 305.164 92.3711ZM319.449 92.9219C319.074 92.8594 318.688 92.8281 318.289 92.8281C316.984 92.8281 316.105 93.3281 315.652 94.3281V103H312.805V90.3203H315.523L315.594 91.7383C316.281 90.6367 317.234 90.0859 318.453 90.0859C318.859 90.0859 319.195 90.1406 319.461 90.25L319.449 92.9219ZM328.355 99.5547C328.355 99.0469 328.145 98.6602 327.723 98.3945C327.309 98.1289 326.617 97.8945 325.648 97.6914C324.68 97.4883 323.871 97.2305 323.223 96.918C321.801 96.2305 321.09 95.2344 321.09 93.9297C321.09 92.8359 321.551 91.9219 322.473 91.1875C323.395 90.4531 324.566 90.0859 325.988 90.0859C327.504 90.0859 328.727 90.4609 329.656 91.2109C330.594 91.9609 331.062 92.9336 331.062 94.1289H328.215C328.215 93.582 328.012 93.1289 327.605 92.7695C327.199 92.4023 326.66 92.2188 325.988 92.2188C325.363 92.2188 324.852 92.3633 324.453 92.6523C324.062 92.9414 323.867 93.3281 323.867 93.8125C323.867 94.25 324.051 94.5898 324.418 94.832C324.785 95.0742 325.527 95.3203 326.645 95.5703C327.762 95.8125 328.637 96.1055 329.27 96.4492C329.91 96.7852 330.383 97.1914 330.688 97.668C331 98.1445 331.156 98.7227 331.156 99.4023C331.156 100.543 330.684 101.469 329.738 102.18C328.793 102.883 327.555 103.234 326.023 103.234C324.984 103.234 324.059 103.047 323.246 102.672C322.434 102.297 321.801 101.781 321.348 101.125C320.895 100.469 320.668 99.7617 320.668 99.0039H323.434C323.473 99.6758 323.727 100.195 324.195 100.562C324.664 100.922 325.285 101.102 326.059 101.102C326.809 101.102 327.379 100.961 327.77 100.68C328.16 100.391 328.355 100.016 328.355 99.5547ZM336.676 103H333.828V90.3203H336.676V103ZM333.652 87.0273C333.652 86.5898 333.789 86.2266 334.062 85.9375C334.344 85.6484 334.742 85.5039 335.258 85.5039C335.773 85.5039 336.172 85.6484 336.453 85.9375C336.734 86.2266 336.875 86.5898 336.875 87.0273C336.875 87.457 336.734 87.8164 336.453 88.1055C336.172 88.3867 335.773 88.5273 335.258 88.5273C334.742 88.5273 334.344 88.3867 334.062 88.1055C333.789 87.8164 333.652 87.457 333.652 87.0273ZM339.254 96.543C339.254 95.3008 339.5 94.1836 339.992 93.1914C340.484 92.1914 341.176 91.4258 342.066 90.8945C342.957 90.3555 343.98 90.0859 345.137 90.0859C346.848 90.0859 348.234 90.6367 349.297 91.7383C350.367 92.8398 350.945 94.3008 351.031 96.1211L351.043 96.7891C351.043 98.0391 350.801 99.1562 350.316 100.141C349.84 101.125 349.152 101.887 348.254 102.426C347.363 102.965 346.332 103.234 345.16 103.234C343.371 103.234 341.938 102.641 340.859 101.453C339.789 100.258 339.254 98.668 339.254 96.6836V96.543ZM342.102 96.7891C342.102 98.0938 342.371 99.1172 342.91 99.8594C343.449 100.594 344.199 100.961 345.16 100.961C346.121 100.961 346.867 100.586 347.398 99.8359C347.938 99.0859 348.207 97.9883 348.207 96.543C348.207 95.2617 347.93 94.2461 347.375 93.4961C346.828 92.7461 346.082 92.3711 345.137 92.3711C344.207 92.3711 343.469 92.7422 342.922 93.4844C342.375 94.2188 342.102 95.3203 342.102 96.7891ZM356.094 90.3203L356.176 91.7852C357.113 90.6523 358.344 90.0859 359.867 90.0859C362.508 90.0859 363.852 91.5977 363.898 94.6211V103H361.051V94.7852C361.051 93.9805 360.875 93.3867 360.523 93.0039C360.18 92.6133 359.613 92.418 358.824 92.418C357.676 92.418 356.82 92.9375 356.258 93.9766V103H353.41V90.3203H356.094ZM373.918 99.5547C373.918 99.0469 373.707 98.6602 373.285 98.3945C372.871 98.1289 372.18 97.8945 371.211 97.6914C370.242 97.4883 369.434 97.2305 368.785 96.918C367.363 96.2305 366.652 95.2344 366.652 93.9297C366.652 92.8359 367.113 91.9219 368.035 91.1875C368.957 90.4531 370.129 90.0859 371.551 90.0859C373.066 90.0859 374.289 90.4609 375.219 91.2109C376.156 91.9609 376.625 92.9336 376.625 94.1289H373.777C373.777 93.582 373.574 93.1289 373.168 92.7695C372.762 92.4023 372.223 92.2188 371.551 92.2188C370.926 92.2188 370.414 92.3633 370.016 92.6523C369.625 92.9414 369.43 93.3281 369.43 93.8125C369.43 94.25 369.613 94.5898 369.98 94.832C370.348 95.0742 371.09 95.3203 372.207 95.5703C373.324 95.8125 374.199 96.1055 374.832 96.4492C375.473 96.7852 375.945 97.1914 376.25 97.668C376.562 98.1445 376.719 98.7227 376.719 99.4023C376.719 100.543 376.246 101.469 375.301 102.18C374.355 102.883 373.117 103.234 371.586 103.234C370.547 103.234 369.621 103.047 368.809 102.672C367.996 102.297 367.363 101.781 366.91 101.125C366.457 100.469 366.23 99.7617 366.23 99.0039H368.996C369.035 99.6758 369.289 100.195 369.758 100.562C370.227 100.922 370.848 101.102 371.621 101.102C372.371 101.102 372.941 100.961 373.332 100.68C373.723 100.391 373.918 100.016 373.918 99.5547ZM392.762 103C392.637 102.758 392.527 102.363 392.434 101.816C391.527 102.762 390.418 103.234 389.105 103.234C387.832 103.234 386.793 102.871 385.988 102.145C385.184 101.418 384.781 100.52 384.781 99.4492C384.781 98.0977 385.281 97.0625 386.281 96.3438C387.289 95.6172 388.727 95.2539 390.594 95.2539H392.34V94.4219C392.34 93.7656 392.156 93.2422 391.789 92.8516C391.422 92.4531 390.863 92.2539 390.113 92.2539C389.465 92.2539 388.934 92.418 388.52 92.7461C388.105 93.0664 387.898 93.4766 387.898 93.9766H385.051C385.051 93.2812 385.281 92.6328 385.742 92.0312C386.203 91.4219 386.828 90.9453 387.617 90.6016C388.414 90.2578 389.301 90.0859 390.277 90.0859C391.762 90.0859 392.945 90.4609 393.828 91.2109C394.711 91.9531 395.164 93 395.188 94.3516V100.07C395.188 101.211 395.348 102.121 395.668 102.801V103H392.762ZM389.633 100.949C390.195 100.949 390.723 100.812 391.215 100.539C391.715 100.266 392.09 99.8984 392.34 99.4375V97.0469H390.805C389.75 97.0469 388.957 97.2305 388.426 97.5977C387.895 97.9648 387.629 98.4844 387.629 99.1562C387.629 99.7031 387.809 100.141 388.168 100.469C388.535 100.789 389.023 100.949 389.633 100.949ZM400.812 90.3203L400.895 91.7852C401.832 90.6523 403.062 90.0859 404.586 90.0859C407.227 90.0859 408.57 91.5977 408.617 94.6211V103H405.77V94.7852C405.77 93.9805 405.594 93.3867 405.242 93.0039C404.898 92.6133 404.332 92.418 403.543 92.418C402.395 92.418 401.539 92.9375 400.977 93.9766V103H398.129V90.3203H400.812ZM410.996 96.5664C410.996 94.6133 411.449 93.0469 412.355 91.8672C413.262 90.6797 414.477 90.0859 416 90.0859C417.344 90.0859 418.43 90.5547 419.258 91.4922V85H422.105V103H419.527L419.387 101.688C418.535 102.719 417.398 103.234 415.977 103.234C414.492 103.234 413.289 102.637 412.367 101.441C411.453 100.246 410.996 98.6211 410.996 96.5664ZM413.844 96.8125C413.844 98.1016 414.09 99.1094 414.582 99.8359C415.082 100.555 415.789 100.914 416.703 100.914C417.867 100.914 418.719 100.395 419.258 99.3555V93.9414C418.734 92.9258 417.891 92.418 416.727 92.418C415.805 92.418 415.094 92.7852 414.594 93.5195C414.094 94.2461 413.844 95.3438 413.844 96.8125ZM437.598 96.4258H434.293V103H431.328V85.9375H437.328C439.297 85.9375 440.816 86.3789 441.887 87.2617C442.957 88.1445 443.492 89.4219 443.492 91.0938C443.492 92.2344 443.215 93.1914 442.66 93.9648C442.113 94.7305 441.348 95.3203 440.363 95.7344L444.195 102.848V103H441.02L437.598 96.4258ZM434.293 94.0469H437.34C438.34 94.0469 439.121 93.7969 439.684 93.2969C440.246 92.7891 440.527 92.0977 440.527 91.2227C440.527 90.3086 440.266 89.6016 439.742 89.1016C439.227 88.6016 438.453 88.3438 437.422 88.3281H434.293V94.0469ZM451.613 103.234C449.809 103.234 448.344 102.668 447.219 101.535C446.102 100.395 445.543 98.8789 445.543 96.9883V96.6367C445.543 95.3711 445.785 94.2422 446.27 93.25C446.762 92.25 447.449 91.4727 448.332 90.918C449.215 90.3633 450.199 90.0859 451.285 90.0859C453.012 90.0859 454.344 90.6367 455.281 91.7383C456.227 92.8398 456.699 94.3984 456.699 96.4141V97.5625H448.414C448.5 98.6094 448.848 99.4375 449.457 100.047C450.074 100.656 450.848 100.961 451.777 100.961C453.082 100.961 454.145 100.434 454.965 99.3789L456.5 100.844C455.992 101.602 455.312 102.191 454.461 102.613C453.617 103.027 452.668 103.234 451.613 103.234ZM451.273 92.3711C450.492 92.3711 449.859 92.6445 449.375 93.1914C448.898 93.7383 448.594 94.5 448.461 95.4766H453.887V95.2656C453.824 94.3125 453.57 93.5938 453.125 93.1094C452.68 92.6172 452.062 92.3711 451.273 92.3711ZM463.227 99.3906L465.91 90.3203H468.852L464.457 103H461.984L457.555 90.3203H460.508L463.227 99.3906ZM476.059 103.234C474.254 103.234 472.789 102.668 471.664 101.535C470.547 100.395 469.988 98.8789 469.988 96.9883V96.6367C469.988 95.3711 470.23 94.2422 470.715 93.25C471.207 92.25 471.895 91.4727 472.777 90.918C473.66 90.3633 474.645 90.0859 475.73 90.0859C477.457 90.0859 478.789 90.6367 479.727 91.7383C480.672 92.8398 481.145 94.3984 481.145 96.4141V97.5625H472.859C472.945 98.6094 473.293 99.4375 473.902 100.047C474.52 100.656 475.293 100.961 476.223 100.961C477.527 100.961 478.59 100.434 479.41 99.3789L480.945 100.844C480.438 101.602 479.758 102.191 478.906 102.613C478.062 103.027 477.113 103.234 476.059 103.234ZM475.719 92.3711C474.938 92.3711 474.305 92.6445 473.82 93.1914C473.344 93.7383 473.039 94.5 472.906 95.4766H478.332V95.2656C478.27 94.3125 478.016 93.5938 477.57 93.1094C477.125 92.6172 476.508 92.3711 475.719 92.3711ZM486.008 90.3203L486.09 91.7852C487.027 90.6523 488.258 90.0859 489.781 90.0859C492.422 90.0859 493.766 91.5977 493.812 94.6211V103H490.965V94.7852C490.965 93.9805 490.789 93.3867 490.438 93.0039C490.094 92.6133 489.527 92.418 488.738 92.418C487.59 92.418 486.734 92.9375 486.172 93.9766V103H483.324V90.3203H486.008ZM504.406 101.758C503.57 102.742 502.383 103.234 500.844 103.234C499.469 103.234 498.426 102.832 497.715 102.027C497.012 101.223 496.66 100.059 496.66 98.5352V90.3203H499.508V98.5C499.508 100.109 500.176 100.914 501.512 100.914C502.895 100.914 503.828 100.418 504.312 99.4258V90.3203H507.16V103H504.477L504.406 101.758ZM515.645 103.234C513.84 103.234 512.375 102.668 511.25 101.535C510.133 100.395 509.574 98.8789 509.574 96.9883V96.6367C509.574 95.3711 509.816 94.2422 510.301 93.25C510.793 92.25 511.48 91.4727 512.363 90.918C513.246 90.3633 514.23 90.0859 515.316 90.0859C517.043 90.0859 518.375 90.6367 519.312 91.7383C520.258 92.8398 520.73 94.3984 520.73 96.4141V97.5625H512.445C512.531 98.6094 512.879 99.4375 513.488 100.047C514.105 100.656 514.879 100.961 515.809 100.961C517.113 100.961 518.176 100.434 518.996 99.3789L520.531 100.844C520.023 101.602 519.344 102.191 518.492 102.613C517.648 103.027 516.699 103.234 515.645 103.234ZM515.305 92.3711C514.523 92.3711 513.891 92.6445 513.406 93.1914C512.93 93.7383 512.625 94.5 512.492 95.4766H517.918V95.2656C517.855 94.3125 517.602 93.5938 517.156 93.1094C516.711 92.6172 516.094 92.3711 515.305 92.3711Z" fill="#333333"/>
<path d="M120.7 72.0363L110.576 74.7492C109.809 74.955 109.553 75.9133 110.114 76.4756L112.649 79.0107L99.1753 92.4138L91.7769 85.0153L80.9692 95.823L74.6309 89.4847L58.1512 105.964C57.9496 106.166 57.9496 106.492 58.1512 106.694L59.9037 108.446C60.1053 108.648 60.4317 108.648 60.6333 108.446L74.6309 94.4499L80.9692 100.788L91.7769 89.9805L99.1691 97.3727L115.132 81.4918L117.526 83.8855C118.087 84.4468 119.047 84.19 119.252 83.423L121.965 73.2992C122.17 72.5321 121.467 71.8305 120.7 72.0363Z" fill="#28A745"/>
<defs>
<filter id="filter0_d" x="0" y="0" width="579" height="198" filterUnits="userSpaceOnUse" color-interpolation-filters="sRGB">
<feFlood flood-opacity="0" result="BackgroundImageFix"/>
<feColorMatrix in="SourceAlpha" type="matrix" values="0 0 0 0 0 0 0 0 0 0 0 0 0 0 0 0 0 0 127 0"/>
<feOffset dy="4"/>
<feGaussianBlur stdDeviation="12"/>
<feColorMatrix type="matrix" values="0 0 0 0 0 0 0 0 0 0 0 0 0 0 0 0 0 0 0.12 0"/>
<feBlend mode="normal" in2="BackgroundImageFix" result="effect1_dropShadow"/>
<feBlend mode="normal" in="SourceGraphic" in2="effect1_dropShadow" result="shape"/>
</filter>
</defs>
</svg>
